# xmcd
#
# Track frame offsets:
# 150
# 19545
# 38108
# 55918
# 74423
# 94023
# 112598
# 130435
# 152433
# 173825
# 195992
# 213698
# 231758
# 250418
# 271363
#
# Disc length: 3897 seconds
#
#
# Revision: 1
# Processed by: cddbd v1.5.2PL0 Copyright (c) Steve Scherf et al.
# Submitted via: FreeRIP 2.944 
#
DISCID=c70f370f
DTITLE=Robert Cray - Greatest hits and more CD1
DYEAR=2001
DGENRE=Blues
TTITLE0=Right next door
TTITLE1=Smoking gun
TTITLE2=I wonder
TTITLE3=Foul play
TTITLE4=New blood
TTITLE5=Across the line
TTITLE6=Don't you even care
TTITLE7=Your secret's safe with me
TTITLE8=Night patrol
TTITLE9=These things
TTITLE10=Labor of love
TTITLE11=The forecast
TTITLE12=Move a mountain
TTITLE13=Holdin' court
TTITLE14=A whole lotta pride
EXTD=YEAR: 2001
EXTT0=
EXTT1=
EXTT2=
EXTT3=
EXTT4=
EXTT5=
EXTT6=
EXTT7=
EXTT8=
EXTT9=
EXTT10=
EXTT11=
EXTT12=
EXTT13=
EXTT14=
PLAYORDER=
